<svg width="28" height="28" viewBox="0 0 28 28" fill="none" xmlns="http://www.w3.org/2000/svg">
<path d="M26.8332 3.5C25.716 4.28805 24.479 4.89079 23.1698 5.285C22.4672 4.47709 21.5334 3.90447 20.4947 3.64458C19.456 3.38468 18.3626 3.45006 17.3623 3.83186C16.3619 4.21366 15.503 4.89347 14.9016 5.77933C14.3003 6.6652 13.9855 7.71439 13.9998 8.785V9.95166C11.9496 10.0048 9.91799 9.55011 8.08601 8.62802C6.25404 7.70592 4.67854 6.34507 3.49984 4.66666C3.49984 4.66666 -1.16683 15.1667 9.33317 19.8333C6.93045 21.4643 4.06819 22.2821 1.1665 22.1667C11.6665 28 24.4998 22.1667 24.4998 8.75C24.4988 8.42503 24.4675 8.10086 24.4065 7.78166C25.5972 6.60741 26.4375 5.12483 26.8332 3.5V3.5Z" stroke="white" stroke-width="2.33333" stroke-linecap="round" stroke-linejoin="round"/>
</svg>
